<?xml version="1.0" encoding="UTF-8" standalone="no"?>
<!-- Created with Inkscape (http://www.inkscape.org/) -->

<svg
   version="1.1"
   id="svg2"
   width="512"
   height="512"
   viewBox="0 0 512 512"
   xmlns="http://www.w3.org/2000/svg"
   xmlns:svg="http://www.w3.org/2000/svg">
  <defs
     id="defs6" />
  <g
     id="g8">
    <g
       id="g847"
       transform="matrix(1.1406084,0,0,1.1428723,-35.991266,-37.125718)">
      <path
         style="display:none;fill:#fefefe"
         d="M 0,256 V 0 H 256 512 V 256 512 H 256 0 Z m 316.61577,223.43821 c 10.22573,-7.63707 10.2266,-20.23478 0.002,-27.87642 -2.54384,-1.9012 -4.38995,-2.08691 -23.70216,-2.38435 l -20.94345,-0.32255 0.26395,-31.63525 0.26395,-31.63525 7.5,-1.17925 c 14.77972,-2.32388 26.29457,-6.06895 40.96903,-13.3247 46.65165,-23.06681 77.46372,-69.81088 80.68137,-122.39931 0.58123,-9.49945 0.43771,-10.86767 -1.57643,-15.02832 -2.86359,-5.9154 -7.38589,-8.75425 -14.0275,-8.8057 -9.37993,-0.0727 -15.48681,5.84312 -16.4687,15.95335 -2.50332,25.7759 -5.29161,36.93819 -12.90521,51.66305 C 337.46749,329.60652 297.56022,354 256,354 214.43978,354 174.53251,329.60652 155.32744,292.46351 148.17887,278.63803 143.05664,259.77223 142.9837,247 c -0.0844,-14.77239 -5.84712,-22.23951 -17.09611,-22.15238 -6.3711,0.0494 -11.12549,3.03079 -13.90243,8.7181 -2.26406,4.63694 -2.50926,10.70446 -0.94807,23.46051 5.52723,45.16156 30.55509,84.45401 68.65046,107.77768 16.14194,9.88282 34.64641,16.86006 51.81245,19.53624 l 8,1.24721 0.26405,31.70632 0.26404,31.70632 -18.76404,0.006 c -10.32023,0.003 -20.41453,0.46399 -22.43178,1.02429 -7.41285,2.05891 -12.79979,11.66333 -10.76991,19.20173 1.31391,4.87947 6.26501,10.50564 10.28924,11.69215 1.80518,0.53223 27.11584,0.85318 59.32596,0.75226 55.03919,-0.17244 56.2335,-0.21779 58.93821,-2.2378 z M 280.93273,332.05835 c 16.87855,-4.92009 30.22318,-12.92618 42.56727,-25.53817 9.23125,-9.4316 16.49573,-20.91382 20.74823,-32.79463 5.57425,-15.57354 5.67894,-17.24949 5.71688,-91.51771 0.0299,-58.58337 -0.1909,-69.38795 -1.55334,-76 C 340.95247,70.007107 313.24188,41.390854 277.5,32.978469 259.42315,28.723813 243.22449,29.489873 225.73752,35.426397 208.32861,41.336423 191.56154,53.496743 180.46185,68.262595 174.93089,75.620405 168.0119,89.703454 164.8693,100 c -2.27994,7.47008 -2.29041,7.78718 -2.62292,79.48113 -0.29364,63.31118 -0.13853,72.94509 1.28779,79.98429 7.47973,36.91398 35.86579,65.67041 72.9814,73.93363 10.33493,2.30091 34.41825,1.57397 44.41716,-1.3407 z"
         id="path863" />
      <path
         style="display:none;fill:#cecece"
         d="m 201.8125,481.31689 c 0.72187,-0.28887 1.58437,-0.25335 1.91667,0.0789 0.33229,0.33229 -0.25834,0.56864 -1.3125,0.52522 -1.16495,-0.048 -1.4019,-0.28494 -0.60417,-0.60416 z m -14.73355,-15.90022 c 0.048,-1.16495 0.28494,-1.4019 0.60416,-0.60417 0.28887,0.72187 0.25335,1.58438 -0.0789,1.91667 -0.3323,0.33229 -0.56864,-0.25834 -0.52522,-1.3125 z m 23.72424,-16.16314 c 5.66676,-0.17857 14.66676,-0.17784 20,0.002 5.33325,0.17945 0.69681,0.32556 -10.30319,0.32467 -11,-8.8e-4 -15.36356,-0.14771 -9.69681,-0.32628 z m 71,0 c 5.66676,-0.17857 14.66676,-0.17784 20,0.002 5.33325,0.17945 0.69681,0.32556 -10.30319,0.32467 -11,-8.8e-4 -15.36356,-0.14771 -9.69681,-0.32628 z M 160.43709,350.75 157.5,347.5 l 3.25,2.93709 c 1.7875,1.6154 3.25,3.0779 3.25,3.25 0,0.77256 -0.82513,0.0924 -3.56291,-2.93709 z m 83.37541,2.56689 c 0.72187,-0.28887 1.58437,-0.25335 1.91667,0.0789 0.33229,0.33229 -0.25834,0.56864 -1.3125,0.52522 -1.16495,-0.048 -1.4019,-0.28494 -0.60417,-0.60416 z m 23,0 c 0.72187,-0.28887 1.58438,-0.25335 1.91667,0.0789 0.33229,0.33229 -0.25834,0.56864 -1.3125,0.52522 -1.16495,-0.048 -1.4019,-0.28494 -0.60417,-0.60416 z M 350,351.5 c 1.29175,-1.375 2.57363,-2.5 2.84863,-2.5 0.275,0 -0.55688,1.125 -1.84863,2.5 -1.29175,1.375 -2.57363,2.5 -2.84863,2.5 -0.275,0 0.55688,-1.125 1.84863,-2.5 z m -198.12756,-8.25 c -1.24387,-1.58606 -1.2085,-1.62143 0.37756,-0.37756 0.9625,0.75485 1.75,1.54235 1.75,1.75 0,0.82304 -0.82119,0.29331 -2.12756,-1.37244 z m -6.94813,-8 -2.42431,-2.75 2.75,2.42431 c 2.57029,2.26589 3.20859,3.07569 2.42431,3.07569 -0.17912,0 -1.41662,-1.2375 -2.75,-2.75 z M 366,335.5 c 1.29175,-1.375 2.57363,-2.5 2.84863,-2.5 0.275,0 -0.55688,1.125 -1.84863,2.5 -1.29175,1.375 -2.57363,2.5 -2.84863,2.5 -0.275,0 0.55688,-1.125 1.84863,-2.5 z m -122.1875,-1.18311 c 0.72187,-0.28887 1.58437,-0.25335 1.91667,0.0789 0.33229,0.33229 -0.25834,0.56864 -1.3125,0.52522 -1.16495,-0.048 -1.4019,-0.28494 -0.60417,-0.60416 z m 23,0 c 0.72187,-0.28887 1.58438,-0.25335 1.91667,0.0789 0.33229,0.33229 -0.25834,0.56864 -1.3125,0.52522 -1.16495,-0.048 -1.4019,-0.28494 -0.60417,-0.60416 z M 176,321.5 c -2.42903,-2.475 -4.19142,-4.5 -3.91642,-4.5 0.275,0 2.48739,2.025 4.91642,4.5 2.42903,2.475 4.19142,4.5 3.91642,4.5 -0.275,0 -2.48739,-2.025 -4.91642,-4.5 z m 159.95821,-0.75 C 340.10217,316.33481 341,315.54091 341,316.29179 c 0,0.16049 -2.1375,2.29799 -4.75,4.75 L 331.5,325.5 Z M 188.96584,307.25 183.5,301.5 l 5.75,5.46584 c 3.1625,3.00621 5.75,5.59371 5.75,5.75 0,0.74225 -0.95622,-0.12391 -6.03416,-5.46584 z M 322,307.5 c 2.98742,-3.025 5.65668,-5.5 5.93168,-5.5 0.275,0 -1.94426,2.475 -4.93168,5.5 -2.98742,3.025 -5.65668,5.5 -5.93168,5.5 -0.275,0 1.94426,-2.475 4.93168,-5.5 z m -141.12756,-9.25 c -1.24387,-1.58606 -1.2085,-1.62143 0.37756,-0.37756 0.9625,0.75485 1.75,1.54235 1.75,1.75 0,0.82304 -0.82119,0.29331 -2.12756,-1.37244 z M 329,299.62244 c 0,-0.20765 0.7875,-0.99515 1.75,-1.75 1.58606,-1.24387 1.62143,-1.2085 0.37756,0.37756 C 329.82119,299.91575 329,300.44548 329,299.62244 Z M 162.07895,252.41667 c 0.048,-1.16495 0.28494,-1.4019 0.60416,-0.60417 0.28887,0.72187 0.25335,1.58437 -0.0789,1.91667 -0.3323,0.33229 -0.56864,-0.25834 -0.52522,-1.3125 z M 110.232,249 c 0,-1.925 0.2058,-2.7125 0.45733,-1.75 0.25152,0.9625 0.25152,2.5375 0,3.5 -0.25153,0.9625 -0.45733,0.175 -0.45733,-1.75 z m 238.84695,1.41667 c 0.048,-1.16495 0.28494,-1.4019 0.60416,-0.60417 0.28887,0.72187 0.25335,1.58437 -0.0789,1.91667 -0.33229,0.33229 -0.56864,-0.25834 -0.52522,-1.3125 z M 401.232,249 c 0,-1.925 0.2058,-2.7125 0.45733,-1.75 0.25152,0.9625 0.25152,2.5375 0,3.5 -0.25153,0.9625 -0.45733,0.175 -0.45733,-1.75 z m -259,-6 c 0,-1.925 0.2058,-2.7125 0.45733,-1.75 0.25152,0.9625 0.25152,2.5375 0,3.5 -0.25153,0.9625 -0.45733,0.175 -0.45733,-1.75 z m 226.92589,-1 c 0,-1.375 0.22698,-1.9375 0.50439,-1.25 0.27741,0.6875 0.27741,1.8125 0,2.5 -0.27741,0.6875 -0.50439,0.125 -0.50439,-1.25 z M 162.07895,114.41667 c 0.048,-1.16495 0.28494,-1.4019 0.60416,-0.60417 0.28887,0.72187 0.25335,1.58437 -0.0789,1.91667 -0.3323,0.33229 -0.56864,-0.25834 -0.52522,-1.3125 z m 187,-1 c 0.048,-1.16495 0.28494,-1.4019 0.60416,-0.60417 0.28887,0.72187 0.25335,1.58437 -0.0789,1.91667 -0.33229,0.33229 -0.56864,-0.25834 -0.52522,-1.3125 z M 184.5,63 c 0.99549,-1.1 2.03498,-2 2.30998,-2 0.275,0 -0.31449,0.9 -1.30998,2 -0.99549,1.1 -2.03498,2 -2.30998,2 -0.275,0 0.31449,-0.9 1.30998,-2 z M 326.40499,62.75 324.5,60.5 l 2.25,1.904988 C 328.86444,64.195206 329.45524,65 328.65499,65 c -0.18976,0 -1.20226,-1.0125 -2.25,-2.25 z M 194.5,53 c 0.99549,-1.1 2.03498,-2 2.30998,-2 0.275,0 -0.31449,0.9 -1.30998,2 -0.99549,1.1 -2.03498,2 -2.30998,2 -0.275,0 0.31449,-0.9 1.30998,-2 z M 316.40499,52.75 314.5,50.5 l 2.25,1.904988 c 1.2375,1.047743 2.25,2.060243 2.25,2.25 0,0.800253 -0.80479,0.209457 -2.59501,-1.904988 z M 249.76166,30.292739 c 1.24391,-0.239193 3.04391,-0.230112 4,0.02018 0.95609,0.250292 -0.0617,0.445996 -2.26166,0.434897 -2.2,-0.0111 -2.98225,-0.215885 -1.73834,-0.455078 z m 8.50737,0.01427 c 0.97297,-0.253543 2.32297,-0.236869 3,0.03705 0.67703,0.273923 -0.11903,0.481368 -1.76903,0.460988 -1.65,-0.02038 -2.20394,-0.244498 -1.23097,-0.498042 z"
         id="path861" />
      <path
         style="display:none;fill:#b3b3b3"
         d="m 230.32036,481.25057 c 14.7512,-0.15592 38.6012,-0.15579 53,3e-4 14.3988,0.15609 2.32964,0.28367 -26.82036,0.2835 -29.15,-1.6e-4 -40.93084,-0.12787 -26.17964,-0.2838 z M 191.87244,476.25 c -1.24387,-1.58606 -1.2085,-1.62143 0.37756,-0.37756 0.9625,0.75485 1.75,1.54235 1.75,1.75 0,0.82304 -0.82119,0.29331 -2.12756,-1.37244 z M 318,477.62244 c 0,-0.20765 0.7875,-0.99515 1.75,-1.75 1.58606,-1.24387 1.62143,-1.2085 0.37756,0.37756 C 318.82119,477.91575 318,478.44548 318,477.62244 Z m -127,-22 c 0,-0.20765 0.7875,-0.99515 1.75,-1.75 1.58606,-1.24387 1.62143,-1.2085 0.37756,0.37756 C 191.82119,455.91575 191,456.44548 191,455.62244 Z M 318.87244,454.25 c -1.24387,-1.58606 -1.2085,-1.62143 0.37756,-0.37756 1.66575,1.30637 2.19548,2.12756 1.37244,2.12756 -0.20765,0 -0.99515,-0.7875 -1.75,-1.75 z m -163,-108 c -1.24387,-1.58606 -1.2085,-1.62143 0.37756,-0.37756 0.9625,0.75485 1.75,1.54235 1.75,1.75 0,0.82304 -0.82119,0.29331 -2.12756,-1.37244 z M 361,340.62244 c 0,-0.20765 0.7875,-0.99515 1.75,-1.75 1.58606,-1.24387 1.62143,-1.2085 0.37756,0.37756 C 361.82119,340.91575 361,341.44548 361,340.62244 Z m -114.1875,-6.30555 c 0.72187,-0.28887 1.58437,-0.25335 1.91667,0.0789 0.33229,0.33229 -0.25834,0.56864 -1.3125,0.52522 -1.16495,-0.048 -1.4019,-0.28494 -0.60417,-0.60416 z m 17,0 c 0.72187,-0.28887 1.58438,-0.25335 1.91667,0.0789 0.33229,0.33229 -0.25834,0.56864 -1.3125,0.52522 -1.16495,-0.048 -1.4019,-0.28494 -0.60417,-0.60416 z M 169.87244,315.25 c -1.24387,-1.58606 -1.2085,-1.62143 0.37756,-0.37756 0.9625,0.75485 1.75,1.54235 1.75,1.75 0,0.82304 -0.82119,0.29331 -2.12756,-1.37244 z M 142.232,249 c 0,-1.925 0.2058,-2.7125 0.45733,-1.75 0.25152,0.9625 0.25152,2.5375 0,3.5 -0.25153,0.9625 -0.45733,0.175 -0.45733,-1.75 z m 19.84695,0.41667 c 0.048,-1.16495 0.28494,-1.4019 0.60416,-0.60417 0.28887,0.72187 0.25335,1.58437 -0.0789,1.91667 -0.3323,0.33229 -0.56864,-0.25834 -0.52522,-1.3125 z M 369.19495,246.5 c 0.0204,-1.65 0.2445,-2.20394 0.49804,-1.23097 0.25354,0.97297 0.23687,2.32297 -0.0371,3 -0.27393,0.67703 -0.48137,-0.11903 -0.46099,-1.76903 z M 110.27236,242 c 0,-2.475 0.19502,-3.4875 0.43337,-2.25 0.23836,1.2375 0.23836,3.2625 0,4.5 -0.23835,1.2375 -0.43337,0.225 -0.43337,-2.25 z m 291,0 c 0,-2.475 0.19502,-3.4875 0.43337,-2.25 0.23836,1.2375 0.23836,3.2625 0,4.5 -0.23835,1.2375 -0.43337,0.225 -0.43337,-2.25 z M 162.07895,117.41667 c 0.048,-1.16495 0.28494,-1.4019 0.60416,-0.60417 0.28887,0.72187 0.25335,1.58437 -0.0789,1.91667 -0.3323,0.33229 -0.56864,-0.25834 -0.52522,-1.3125 z m 187,-1 c 0.048,-1.16495 0.28494,-1.4019 0.60416,-0.60417 0.28887,0.72187 0.25335,1.58437 -0.0789,1.91667 -0.33229,0.33229 -0.56864,-0.25834 -0.52522,-1.3125 z M 187,60.687091 c 0,-0.1721 1.4625,-1.6346 3.25,-3.25 L 193.5,54.5 190.56291,57.75 C 187.82513,60.779455 187,61.459652 187,60.687091 Z M 321.43709,57.75 318.5,54.5 l 3.25,2.937091 c 1.7875,1.6154 3.25,3.0779 3.25,3.25 0,0.772561 -0.82513,0.09236 -3.56291,-2.937091 z M 266.8125,31.316886 c 0.72187,-0.288871 1.58438,-0.253344 1.91667,0.07895 0.33229,0.332292 -0.25834,0.568641 -1.3125,0.52522 -1.16495,-0.04798 -1.4019,-0.284941 -0.60417,-0.604167 z"
         id="path859" />
      <path
         style="display:none;fill:#8a8a8a"
         d="m 240.44614,417.5 c 4e-4,-17.6 0.13647,-24.65916 0.30237,-15.68703 0.1659,8.97214 0.16557,23.37214 -7.3e-4,32 -0.1663,8.62787 -0.30204,1.28703 -0.30164,-16.31297 z m 31,0 c 4e-4,-17.6 0.13647,-24.65916 0.30237,-15.68703 0.1659,8.97214 0.16557,23.37214 -7.3e-4,32 -0.1663,8.62787 -0.30204,1.28703 -0.30164,-16.31297 z M 252.75,354.2766 c 1.7875,-0.22182 4.7125,-0.22182 6.5,0 1.7875,0.22183 0.325,0.40333 -3.25,0.40333 -3.575,0 -5.0375,-0.1815 -3.25,-0.40333 z M 355,346.68709 c 0,-0.1721 1.4625,-1.6346 3.25,-3.25 l 3.25,-2.93709 -2.93709,3.25 C 355.82513,346.77946 355,347.45965 355,346.68709 Z M 151.92431,342.25 149.5,339.5 l 2.75,2.42431 c 2.57029,2.26589 3.20859,3.07569 2.42431,3.07569 -0.17912,0 -1.41662,-1.2375 -2.75,-2.75 z m 217.15464,-91.83333 c 0.048,-1.16495 0.28494,-1.4019 0.60416,-0.60417 0.28887,0.72187 0.25335,1.58437 -0.0789,1.91667 -0.33229,0.33229 -0.56864,-0.25834 -0.52522,-1.3125 z M 162.19495,245.5 c 0.0204,-1.65 0.2445,-2.20394 0.49804,-1.23097 0.25354,0.97297 0.23687,2.32297 -0.0371,3 -0.27393,0.67703 -0.48137,-0.11903 -0.46099,-1.76903 z M 349.232,244 c 0,-1.925 0.2058,-2.7125 0.45733,-1.75 0.25152,0.9625 0.25152,2.5375 0,3.5 -0.25153,0.9625 -0.45733,0.175 -0.45733,-1.75 z M 114,230.62244 c 0,-0.20765 0.7875,-0.99515 1.75,-1.75 1.58606,-1.24387 1.62143,-1.2085 0.37756,0.37756 C 114.82119,230.91575 114,231.44548 114,230.62244 Z M 395.87244,229.25 c -1.24387,-1.58606 -1.2085,-1.62143 0.37756,-0.37756 1.66575,1.30637 2.19548,2.12756 1.37244,2.12756 -0.20765,0 -0.99515,-0.7875 -1.75,-1.75 z M 162.232,122 c 0,-1.925 0.2058,-2.7125 0.45733,-1.75 0.25152,0.9625 0.25152,2.5375 0,3.5 -0.25153,0.9625 -0.45733,0.175 -0.45733,-1.75 z m 186.96295,-1.5 c 0.0204,-1.65 0.2445,-2.20394 0.49804,-1.23097 0.25354,0.97297 0.23687,2.32297 -0.0371,3 -0.27393,0.67703 -0.48137,-0.11903 -0.46099,-1.76903 z"
         id="path857" />
      <path
         style="display:none;fill:#757575"
         d="m 188.19495,465.5 c 0.0204,-1.65 0.2445,-2.20394 0.49804,-1.23097 0.25354,0.97297 0.23687,2.32297 -0.0371,3 -0.27393,0.67703 -0.48137,-0.11903 -0.46099,-1.76903 z m 135,0 c 0.0204,-1.65 0.2445,-2.20394 0.49804,-1.23097 0.25354,0.97297 0.23687,2.32297 -0.0371,3 -0.27393,0.67703 -0.48137,-0.11903 -0.46099,-1.76903 z M 246.26903,354.30701 c 0.97297,-0.25354 2.32297,-0.23687 3,0.0371 0.67703,0.27393 -0.11903,0.48137 -1.76903,0.46099 -1.65,-0.0204 -2.20394,-0.2445 -1.23097,-0.49804 z m 17,0 c 0.97297,-0.25354 2.32297,-0.23687 3,0.0371 0.67703,0.27393 -0.11903,0.48137 -1.76903,0.46099 -1.65,-0.0204 -2.20394,-0.2445 -1.23097,-0.49804 z M 348,352.62244 c 0,-0.20765 0.7875,-0.99515 1.75,-1.75 1.58606,-1.24387 1.62143,-1.2085 0.37756,0.37756 C 348.82119,352.91575 348,353.44548 348,352.62244 Z M 160.87244,350.25 c -1.24387,-1.58606 -1.2085,-1.62143 0.37756,-0.37756 0.9625,0.75485 1.75,1.54235 1.75,1.75 0,0.82304 -0.82119,0.29331 -2.12756,-1.37244 z M 365.5,335 c 0.99549,-1.1 2.03498,-2 2.30998,-2 0.275,0 -0.31449,0.9 -1.30998,2 -0.99549,1.1 -2.03498,2 -2.30998,2 -0.275,0 0.31449,-0.9 1.30998,-2 z m -220.62756,-0.75 c -1.24387,-1.58606 -1.2085,-1.62143 0.37756,-0.37756 0.9625,0.75485 1.75,1.54235 1.75,1.75 0,0.82304 -0.82119,0.29331 -2.12756,-1.37244 z M 253.25,334.2837 c 1.5125,-0.22913 3.9875,-0.22913 5.5,0 1.5125,0.22912 0.275,0.41659 -2.75,0.41659 -3.025,0 -4.2625,-0.18747 -2.75,-0.41659 z M 175.43709,321.75 172.5,318.5 l 3.25,2.93709 c 3.02946,2.73778 3.70965,3.56291 2.93709,3.56291 -0.1721,0 -1.6346,-1.4625 -3.25,-3.25 z M 335,322.68709 c 0,-0.1721 1.4625,-1.6346 3.25,-3.25 l 3.25,-2.93709 -2.93709,3.25 C 335.82513,322.77946 335,323.45965 335,322.68709 Z M 189.45295,306.75 185.5,302.5 l 4.25,3.95295 c 3.95246,3.6762 4.70953,4.54705 3.95295,4.54705 -0.16338,0 -2.07588,-1.9125 -4.25,-4.25 z M 321.5,307 c 2.14824,-2.2 4.1309,-4 4.4059,-4 0.275,0 -1.25766,1.8 -3.4059,4 -2.14824,2.2 -4.1309,4 -4.4059,4 -0.275,0 1.25766,-1.8 3.4059,-4 z M 111.15789,253 c 0,-1.375 0.22698,-1.9375 0.50439,-1.25 0.27741,0.6875 0.27741,1.8125 0,2.5 -0.27741,0.6875 -0.50439,0.125 -0.50439,-1.25 z m 289,0 c 0,-1.375 0.22698,-1.9375 0.50439,-1.25 0.27741,0.6875 0.27741,1.8125 0,2.5 -0.27741,0.6875 -0.50439,0.125 -0.50439,-1.25 z m -237.6888,-69 c 0,-32.725 0.12615,-46.1125 0.28033,-29.75 0.15419,16.3625 0.15419,43.1375 0,59.5 -0.15418,16.3625 -0.28033,2.975 -0.28033,-29.75 z m -21.39014,55.41667 c 0.048,-1.16495 0.28494,-1.4019 0.60416,-0.60417 0.28887,0.72187 0.25335,1.58437 -0.0789,1.91667 -0.3323,0.33229 -0.56864,-0.25834 -0.52522,-1.3125 z M 349.46909,182 c 0,-32.725 0.12615,-46.1125 0.28033,-29.75 0.15419,16.3625 0.15419,43.1375 0,59.5 -0.15418,16.3625 -0.28033,2.975 -0.28033,-29.75 z m 20.60986,57.41667 c 0.048,-1.16495 0.28494,-1.4019 0.60416,-0.60417 0.28887,0.72187 0.25335,1.58437 -0.0789,1.91667 -0.33229,0.33229 -0.56864,-0.25834 -0.52522,-1.3125 z M 124.25,225.31067 c 0.9625,-0.25152 2.5375,-0.25152 3.5,0 0.9625,0.25153 0.175,0.45733 -1.75,0.45733 -1.925,0 -2.7125,-0.2058 -1.75,-0.45733 z m 260.01903,-0.004 c 0.97297,-0.25354 2.32297,-0.23687 3,0.0371 0.67703,0.27393 -0.11903,0.48137 -1.76903,0.46099 -1.65,-0.0204 -2.20394,-0.2445 -1.23097,-0.49804 z m -221.19008,-112.89 c 0.048,-1.16495 0.28494,-1.4019 0.60416,-0.60417 0.28887,0.72187 0.25335,1.58437 -0.0789,1.91667 -0.3323,0.33229 -0.56864,-0.25834 -0.52522,-1.3125 z M 246.8125,31.316886 c 0.72187,-0.288871 1.58437,-0.253344 1.91667,0.07895 0.33229,0.332292 -0.25834,0.568641 -1.3125,0.52522 -1.16495,-0.04798 -1.4019,-0.284941 -0.60417,-0.604167 z m 14.9375,0.02083 c 0.6875,-0.277412 1.8125,-0.277412 2.5,0 0.6875,0.277413 0.125,0.504386 -1.25,0.504386 -1.375,0 -1.9375,-0.226973 -1.25,-0.504386 z"
         id="path855" />
      <path
         style="display:none;fill:#4a4a4a"
         d="m 228.25,480.25066 c 15.2625,-0.15526 40.2375,-0.15526 55.5,0 15.2625,0.15526 2.775,0.28229 -27.75,0.28229 -30.525,0 -43.0125,-0.12703 -27.75,-0.28229 z m -17.44681,-29.99713 c 5.66676,-0.17857 14.66676,-0.17784 20,0.002 5.33325,0.17945 0.69681,0.32556 -10.30319,0.32467 -11,-8.8e-4 -15.36356,-0.14771 -9.69681,-0.32628 z m 71,0 c 5.66676,-0.17857 14.66676,-0.17784 20,0.002 5.33325,0.17945 0.69681,0.32556 -10.30319,0.32467 -11,-8.8e-4 -15.36356,-0.14771 -9.69681,-0.32628 z M 242.8125,354.31689 c 0.72187,-0.28887 1.58437,-0.25335 1.91667,0.0789 0.33229,0.33229 -0.25834,0.56864 -1.3125,0.52522 -1.16495,-0.048 -1.4019,-0.28494 -0.60417,-0.60416 z m 25,0 c 0.72187,-0.28887 1.58438,-0.25335 1.91667,0.0789 0.33229,0.33229 -0.25834,0.56864 -1.3125,0.52522 -1.16495,-0.048 -1.4019,-0.28494 -0.60417,-0.60416 z M 351,349.62244 c 0,-0.20765 0.7875,-0.99515 1.75,-1.75 1.58606,-1.24387 1.62143,-1.2085 0.37756,0.37756 C 351.82119,349.91575 351,350.44548 351,349.62244 Z M 179.87244,326.25 c -1.24387,-1.58606 -1.2085,-1.62143 0.37756,-0.37756 0.9625,0.75485 1.75,1.54235 1.75,1.75 0,0.82304 -0.82119,0.29331 -2.12756,-1.37244 z M 332.5,325 c 0.99549,-1.1 2.03498,-2 2.30998,-2 0.275,0 -0.31449,0.9 -1.30998,2 -0.99549,1.1 -2.03498,2 -2.30998,2 -0.275,0 0.31449,-0.9 1.30998,-2 z m -161.62756,-7.75 c -1.24387,-1.58606 -1.2085,-1.62143 0.37756,-0.37756 0.9625,0.75485 1.75,1.54235 1.75,1.75 0,0.82304 -0.82119,0.29331 -2.12756,-1.37244 z m 177.20651,-66.83333 c 0.048,-1.16495 0.28494,-1.4019 0.60416,-0.60417 0.28887,0.72187 0.25335,1.58437 -0.0789,1.91667 -0.33229,0.33229 -0.56864,-0.25834 -0.52522,-1.3125 z M 111.232,248 c 0,-1.925 0.2058,-2.7125 0.45733,-1.75 0.25152,0.9625 0.25152,2.5375 0,3.5 -0.25153,0.9625 -0.45733,0.175 -0.45733,-1.75 z m 289,0 c 0,-1.925 0.2058,-2.7125 0.45733,-1.75 0.25152,0.9625 0.25152,2.5375 0,3.5 -0.25153,0.9625 -0.45733,0.175 -0.45733,-1.75 z m -259,-4 c 0,-1.925 0.2058,-2.7125 0.45733,-1.75 0.25152,0.9625 0.25152,2.5375 0,3.5 -0.25153,0.9625 -0.45733,0.175 -0.45733,-1.75 z m 228.92589,-1 c 0,-1.375 0.22698,-1.9375 0.50439,-1.25 0.27741,0.6875 0.27741,1.8125 0,2.5 -0.27741,0.6875 -0.50439,0.125 -0.50439,-1.25 z M 373,231.62244 c 0,-0.20765 0.7875,-0.99515 1.75,-1.75 1.58606,-1.24387 1.62143,-1.2085 0.37756,0.37756 C 373.82119,231.91575 373,232.44548 373,231.62244 Z M 135.87244,229.25 c -1.24387,-1.58606 -1.2085,-1.62143 0.37756,-0.37756 0.9625,0.75485 1.75,1.54235 1.75,1.75 0,0.82304 -0.82119,0.29331 -2.12756,-1.37244 z m 27.20651,-113.83333 c 0.048,-1.16495 0.28494,-1.4019 0.60416,-0.60417 0.28887,0.72187 0.25335,1.58437 -0.0789,1.91667 -0.3323,0.33229 -0.56864,-0.25834 -0.52522,-1.3125 z M 189.5,59 c 2.14824,-2.2 4.1309,-4 4.4059,-4 0.275,0 -1.25766,1.8 -3.4059,4 -2.14824,2.2 -4.1309,4 -4.4059,4 -0.275,0 1.25766,-1.8 3.4059,-4 z M 321.45295,58.75 317.5,54.5 l 4.25,3.952948 c 2.3375,2.174121 4.25,4.086621 4.25,4.25 0,0.756577 -0.87085,-4.9e-4 -4.54705,-3.952948 z M 268.8125,32.316886 c 0.72187,-0.288871 1.58438,-0.253344 1.91667,0.07895 0.33229,0.332292 -0.25834,0.568641 -1.3125,0.52522 -1.16495,-0.04798 -1.4019,-0.284941 -0.60417,-0.604167 z M 250.25,31.310674 c 0.9625,-0.251527 2.5375,-0.251527 3.5,0 0.9625,0.251528 0.175,0.457323 -1.75,0.457323 -1.925,0 -2.7125,-0.205795 -1.75,-0.457323 z m 7.5,0.02705 c 0.6875,-0.277412 1.8125,-0.277412 2.5,0 0.6875,0.277413 0.125,0.504386 -1.25,0.504386 -1.375,0 -1.9375,-0.226973 -1.25,-0.504386 z"
         id="path853" />
      <path
         style="display:none;fill:#2f2f2f"
         d="m 254.75,355.33772 c 0.6875,-0.27741 1.8125,-0.27741 2.5,0 0.6875,0.27741 0.125,0.50439 -1.25,0.50439 -1.375,0 -1.9375,-0.22698 -1.25,-0.50439 z M 163.40499,351.75 161.5,349.5 l 2.25,1.90499 c 2.11444,1.79022 2.70524,2.59501 1.90499,2.59501 -0.18976,0 -1.20226,-1.0125 -2.25,-2.25 z M 346,353.62244 c 0,-0.20765 0.7875,-0.99515 1.75,-1.75 1.58606,-1.24387 1.62143,-1.2085 0.37756,0.37756 C 346.82119,353.91575 346,354.44548 346,353.62244 Z M 153,342.5 c -2.42903,-2.475 -4.19142,-4.5 -3.91642,-4.5 0.275,0 2.48739,2.025 4.91642,4.5 2.42903,2.475 4.19142,4.5 3.91642,4.5 -0.275,0 -2.48739,-2.025 -4.91642,-4.5 z m 204.5,0.5 c 2.14824,-2.2 4.1309,-4 4.4059,-4 0.275,0 -1.25766,1.8 -3.4059,4 -2.14824,2.2 -4.1309,4 -4.4059,4 -0.275,0 1.25766,-1.8 3.4059,-4 z m 9,-10 c 0.99549,-1.1 2.03498,-2 2.30998,-2 0.275,0 -0.31449,0.9 -1.30998,2 -0.99549,1.1 -2.03498,2 -2.30998,2 -0.275,0 0.31449,-0.9 1.30998,-2 z m -222.62756,-0.75 c -1.24387,-1.58606 -1.2085,-1.62143 0.37756,-0.37756 0.9625,0.75485 1.75,1.54235 1.75,1.75 0,0.82304 -0.82119,0.29331 -2.12756,-1.37244 z m 102.94006,1.06689 c 0.72187,-0.28887 1.58437,-0.25335 1.91667,0.0789 0.33229,0.33229 -0.25834,0.56864 -1.3125,0.52522 -1.16495,-0.048 -1.4019,-0.28494 -0.60417,-0.60416 z m 17,0 c 0.72187,-0.28887 1.58438,-0.25335 1.91667,0.0789 0.33229,0.33229 -0.25834,0.56864 -1.3125,0.52522 -1.16495,-0.048 -1.4019,-0.28494 -0.60417,-0.60416 z M 182.87244,329.25 c -1.24387,-1.58606 -1.2085,-1.62143 0.37756,-0.37756 0.9625,0.75485 1.75,1.54235 1.75,1.75 0,0.82304 -0.82119,0.29331 -2.12756,-1.37244 z M 328.5,329 c 0.99549,-1.1 2.03498,-2 2.30998,-2 0.275,0 -0.31449,0.9 -1.30998,2 -0.99549,1.1 -2.03498,2 -2.30998,2 -0.275,0 0.31449,-0.9 1.30998,-2 z m -153.62756,-6.75 c -1.24387,-1.58606 -1.2085,-1.62143 0.37756,-0.37756 1.66575,1.30637 2.19548,2.12756 1.37244,2.12756 -0.20765,0 -0.99515,-0.7875 -1.75,-1.75 z M 336,322.62244 c 0,-0.20765 0.7875,-0.99515 1.75,-1.75 1.58606,-1.24387 1.62143,-1.2085 0.37756,0.37756 C 336.82119,322.91575 336,323.44548 336,322.62244 Z M 167.40499,313.75 165.5,311.5 l 2.25,1.90499 c 2.11444,1.79022 2.70524,2.59501 1.90499,2.59501 -0.18976,0 -1.20226,-1.0125 -2.25,-2.25 z M 343,314.62244 c 0,-0.20765 0.7875,-0.99515 1.75,-1.75 1.58606,-1.24387 1.62143,-1.2085 0.37756,0.37756 C 343.82119,314.91575 343,315.44548 343,314.62244 Z M 194.40499,310.75 192.5,308.5 l 2.25,1.90499 c 2.11444,1.79022 2.70524,2.59501 1.90499,2.59501 -0.18976,0 -1.20226,-1.0125 -2.25,-2.25 z M 316.5,311 c 0.99549,-1.1 2.03498,-2 2.30998,-2 0.275,0 -0.31449,0.9 -1.30998,2 -0.99549,1.1 -2.03498,2 -2.30998,2 -0.275,0 0.31449,-0.9 1.30998,-2 z m -153.62756,-2.75 c -1.24387,-1.58606 -1.2085,-1.62143 0.37756,-0.37756 0.9625,0.75485 1.75,1.54235 1.75,1.75 0,0.82304 -0.82119,0.29331 -2.12756,-1.37244 z M 347,309.62244 c 0,-0.20765 0.7875,-0.99515 1.75,-1.75 1.58606,-1.24387 1.62143,-1.2085 0.37756,0.37756 C 347.82119,309.91575 347,310.44548 347,309.62244 Z M 185.40499,301.75 183.5,299.5 l 2.25,1.90499 c 2.11444,1.79022 2.70524,2.59501 1.90499,2.59501 -0.18976,0 -1.20226,-1.0125 -2.25,-2.25 z M 325.5,302 c 0.99549,-1.1 2.03498,-2 2.30998,-2 0.275,0 -0.31449,0.9 -1.30998,2 -0.99549,1.1 -2.03498,2 -2.30998,2 -0.275,0 0.31449,-0.9 1.30998,-2 z M 141.232,250 c 0,-1.925 0.2058,-2.7125 0.45733,-1.75 0.25152,0.9625 0.25152,2.5375 0,3.5 -0.25153,0.9625 -0.45733,0.175 -0.45733,-1.75 z m 21.92589,-1 c 0,-1.375 0.22698,-1.9375 0.50439,-1.25 0.27741,0.6875 0.27741,1.8125 0,2.5 -0.27741,0.6875 -0.50439,0.125 -0.50439,-1.25 z m 184.92106,-1.58333 c 0.048,-1.16495 0.28494,-1.4019 0.60416,-0.60417 0.28887,0.72187 0.25335,1.58437 -0.0789,1.91667 -0.33229,0.33229 -0.56864,-0.25834 -0.52522,-1.3125 z M 370.15789,247 c 0,-1.375 0.22698,-1.9375 0.50439,-1.25 0.27741,0.6875 0.27741,1.8125 0,2.5 -0.27741,0.6875 -0.50439,0.125 -0.50439,-1.25 z m -258.90571,-5.5 c 0.0111,-2.2 0.21589,-2.98225 0.45508,-1.73834 0.23919,1.24391 0.23011,3.04391 -0.0202,4 -0.25029,0.95609 -0.446,-0.0617 -0.4349,-2.26166 z m 289,0 c 0.0111,-2.2 0.21589,-2.98225 0.45508,-1.73834 0.23919,1.24391 0.23011,3.04391 -0.0202,4 -0.25029,0.95609 -0.446,-0.0617 -0.4349,-2.26166 z M 115.5,230 c 0.99549,-1.1 2.03498,-2 2.30998,-2 0.275,0 -0.31449,0.9 -1.30998,2 -0.99549,1.1 -2.03498,2 -2.30998,2 -0.275,0 0.31449,-0.9 1.30998,-2 z m 279.90499,-0.25 -1.90499,-2.25 2.25,1.90499 c 1.2375,1.04774 2.25,2.06024 2.25,2.25 0,0.80025 -0.80479,0.20945 -2.59501,-1.90499 z M 163.07895,118.41667 c 0.048,-1.16495 0.28494,-1.4019 0.60416,-0.60417 0.28887,0.72187 0.25335,1.58437 -0.0789,1.91667 -0.3323,0.33229 -0.56864,-0.25834 -0.52522,-1.3125 z M 348.15789,117 c 0,-1.375 0.22698,-1.9375 0.50439,-1.25 0.27741,0.6875 0.27741,1.8125 0,2.5 -0.27741,0.6875 -0.50439,0.125 -0.50439,-1.25 z M 183,66.622445 c 0,-0.207656 0.7875,-0.995156 1.75,-1.75 1.58606,-1.243871 1.62143,-1.208501 0.37756,0.377555 C 183.82119,66.915748 183,67.445479 183,66.622445 Z M 326.87244,65.25 C 325.62857,63.663944 325.66394,63.628574 327.25,64.872445 328.91575,66.178814 329.44548,67 328.62244,67 c -0.20765,0 -0.99515,-0.7875 -1.75,-1.75 z M 196,53.622445 c 0,-0.207656 0.7875,-0.995156 1.75,-1.75 1.58606,-1.243871 1.62143,-1.208501 0.37756,0.377555 C 196.82119,53.915748 196,54.445479 196,53.622445 Z M 313.87244,52.25 C 312.62857,50.663944 312.66394,50.628574 314.25,51.872445 315.91575,53.178814 316.44548,54 315.62244,54 c -0.20765,0 -0.99515,-0.7875 -1.75,-1.75 z M 242.8125,32.316886 c 0.72187,-0.288871 1.58437,-0.253344 1.91667,0.07895 0.33229,0.332292 -0.25834,0.568641 -1.3125,0.52522 -1.16495,-0.04798 -1.4019,-0.284941 -0.60417,-0.604167 z"
         id="path851" />
      <path
         style="display:inline;fill:#000000"
         d="m 195.89788,477.73007 c -8.93009,-5.96569 -8.93009,-18.49445 0,-24.46014 3.26132,-2.1787 4.23594,-2.26993 24.25,-2.26993 H 241 v -33.33224 -33.33225 l -9.7959,-1.60798 c -11.30914,-1.85638 -28.59446,-7.43278 -38.7041,-12.48629 -23.0018,-11.49791 -44.78704,-31.1059 -58.69815,-52.83179 -3.85479,-6.02027 -10.1321,-18.9149 -13.09995,-26.90945 -7.96973,-21.4682 -11.28313,-49.75418 -6.7073,-57.25914 3.09957,-5.0837 7.60789,-7.42959 13.32989,-6.93616 9.1062,0.78526 13.67134,6.7151 13.67396,17.76164 0.003,11.76689 3.22441,26.15333 9.12976,40.76965 15.65719,38.75307 53.47536,66.43852 95.62179,70.00158 31.62916,2.67393 63.26642,-7.60852 85.88497,-27.91353 22.81273,-20.47933 35.47771,-45.22176 38.37779,-74.97525 1.62934,-16.71636 1.82419,-17.60157 4.60073,-20.90129 6.37936,-7.58144 19.27346,-5.96815 23.90649,2.99114 3.00989,5.82049 1.30353,27.85544 -3.48176,44.96136 -12.41104,44.36562 -46.93989,81.86168 -89.31983,96.99547 -9.57937,3.42078 -22.00702,6.59798 -29.46839,7.53376 L 271,384.18768 V 417.59384 451 h 20.85212 c 20.01406,0 20.98868,0.0912 24.25,2.26993 8.93009,5.96569 8.93009,18.49445 0,24.46014 L 312.70423,480 H 256 199.29577 Z m 47.44907,-144.71803 c -37.32199,-5.27465 -68.06523,-33.26376 -77.58554,-70.63505 -2.2449,-8.81217 -2.26128,-9.39543 -2.24339,-79.87699 l 0.018,-71 2.68796,-9.80356 c 8.93138,-32.574619 32.20889,-56.529921 64.4794,-66.356932 7.87726,-2.398779 10.4165,-2.683265 24.29659,-2.722089 11.44902,-0.03202 17.28476,0.405358 22.32891,1.673522 34.54066,8.683973 60.97904,35.59473 69.44383,70.684599 1.32478,5.49173 1.63555,16.73389 1.96336,71.02446 0.24699,40.90601 0.006,68.0302 -0.65825,74.15066 -4.26877,39.32085 -31.35612,70.77502 -69.56844,80.78378 -8.98558,2.35355 -26.06814,3.36288 -35.16246,2.0776 z"
         id="path849" />
    </g>
  </g>
</svg>
