<?xml version="1.0" encoding="UTF-8" standalone="no"?>
<!-- Created with Inkscape (http://www.inkscape.org/) -->

<svg
   version="1.1"
   id="svg910"
   width="606.81482"
   height="606.81482"
   viewBox="0 0 606.81482 606.81482"
   sodipodi:docname="microphone-with-slash-interface-symbol-for-mute-audio.png"
   xmlns:inkscape="http://www.inkscape.org/namespaces/inkscape"
   xmlns:sodipodi="http://sodipodi.sourceforge.net/DTD/sodipodi-0.dtd"
   xmlns="http://www.w3.org/2000/svg"
   xmlns:svg="http://www.w3.org/2000/svg">
  <defs
     id="defs914" />
  <sodipodi:namedview
     id="namedview912"
     pagecolor="#505050"
     bordercolor="#eeeeee"
     borderopacity="1"
     inkscape:showpageshadow="0"
     inkscape:pageopacity="0"
     inkscape:pagecheckerboard="0"
     inkscape:deskcolor="#505050"
     showgrid="false" />
  <g
     inkscape:groupmode="layer"
     inkscape:label="Image"
     id="g916">
    <path
       style="display:inline;fill:#000000;stroke-width:1.18519"
       d="m 180.98233,605.12637 c -10.00512,-2.69026 -16.5174,-11.05312 -16.65824,-21.39191 -0.1024,-7.51605 3.7569,-14.73736 10.30042,-19.27373 l 4.72486,-3.27554 50.79366,-0.34433 50.79366,-0.34433 -0.32019,-24.47324 -0.3202,-24.47323 -12.44445,-1.99257 c -22.05683,-3.5317 -45.70415,-11.48878 -63.7543,-21.45268 l -8.81014,-4.8633 16.55253,-16.55253 16.55254,-16.55253 13.50746,5.38377 c 17.9,7.13452 33.04457,10.20354 54.6703,11.07884 26.72124,1.08154 46.44868,-2.19562 69.25165,-11.50419 38.87225,-15.86834 73.39748,-50.3831 89.25432,-89.2273 9.80747,-24.02516 11.83526,-37.52762 11.87211,-79.05275 0.0161,-18.1871 0.55118,-33.29184 1.2711,-35.88425 1.46753,-5.28454 7.10153,-12.06648 12.22508,-14.71598 4.68493,-2.42267 14.57423,-2.42267 19.25916,0 5.12354,2.6495 10.75755,9.43144 12.22508,14.71598 1.60433,5.77714 1.61854,50.01869 0.0224,69.78621 -4.27553,52.95122 -25.74112,97.30452 -65.32123,134.97013 -31.23298,29.72222 -64.90908,46.48671 -108.25955,53.89329 l -11.85185,2.02494 -0.3202,24.44569 -0.32019,24.4457 50.79366,0.34433 50.79366,0.34433 4.72486,3.27554 c 16.91836,11.72881 12.12537,36.76479 -7.85891,41.05066 -9.38611,2.01295 -235.76302,1.65479 -243.34907,-0.38502 z M 64.386845,568.81792 C 54.437016,566.88751 46.43925,560.91056 41.949026,552.04953 37.892305,544.04398 37.176314,536.55019 39.641829,527.90165 L 41.641017,520.88889 279.48717,282.88345 C 428.8801,133.39048 519.09638,43.960016 522.07408,42.409571 c 2.82079,-1.468745 7.9253,-2.697048 12.60403,-3.032919 6.618,-0.475084 8.88284,-0.09772 14.30113,2.382861 8.33032,3.813745 14.51015,10.268311 17.51142,18.289913 3.05596,8.167795 3.03013,13.978771 -0.10039,22.572782 C 563.9825,89.232231 555.27216,98.104105 326.68657,326.77105 134.77273,518.75325 88.463151,564.49446 84.148149,566.3328 c -6.737226,2.8703 -13.434758,3.71256 -19.761304,2.48512 z M 288.5926,418.75727 c -4.84736,-0.60413 -19.80949,-4.08213 -21.60162,-5.02135 -0.90556,-0.47461 27.60883,-29.78969 75.64326,-77.76735 l 77.09673,-77.0056 -0.54055,32 c -0.62917,37.24663 -1.71904,43.24745 -11.40843,62.81481 -13.614,27.49296 -39.66829,50.73473 -67.04125,59.80428 -14.60241,4.83826 -37.00956,7.06195 -52.14814,5.17521 z m -166.47925,-9.97283 c -5.33345,-8.52584 -14.31768,-28.21773 -17.7964,-39.00666 -4.816634,-14.9383 -7.999654,-30.89914 -9.465867,-47.46535 -1.579767,-17.84922 -1.556331,-65.65152 0.035,-71.38186 1.467529,-5.28454 7.101527,-12.06648 12.225077,-14.71598 4.68494,-2.42267 14.57424,-2.42267 19.25917,0 5.12354,2.6495 10.75754,9.43144 12.22508,14.71598 0.71721,2.58266 1.24603,17.27718 1.24983,34.73015 0.004,16.63932 0.55587,34.63369 1.22718,39.9875 1.79052,14.27962 6.31251,30.90186 11.77301,43.27599 l 4.80737,10.89407 -16.50492,16.50494 -16.50494,16.50492 -2.52958,-4.0437 z m 68.5507,-76.63629 -2.8122,-10.37037 -0.33824,-107.08544 c -0.29041,-91.94661 -0.0812,-108.57468 1.47968,-117.619691 4.25522,-24.657722 13.35849,-42.131037 31.95109,-61.328761 15.07674,-15.567432 35.73953,-27.705948 54.63769,-32.0973275 14.59227,-3.39081679 40.90202,-3.39962469 55.65068,-0.01863 8.85618,2.0301979 25.03418,9.1032255 34.10948,14.9126675 15.98865,10.234948 34.32109,30.545647 42.63627,47.23718 6.37139,12.789641 11.57706,33.777735 11.57706,46.676102 v 5.47672 L 307.25694,230.22456 c -61.76424,61.76168 -112.6321,112.29396 -113.03967,112.29396 -0.40757,0 -2.00652,-4.66667 -3.55322,-10.37037 z"
       id="path1039" />
  </g>
</svg>
